
<svg width="330px" height="328px" viewBox="0 0 330 328" version="1.1" xmlns="http://www.w3.org/2000/svg" xmlns:xlink="http://www.w3.org/1999/xlink">
    <!-- Generator: Sketch 46.2 (44496) - http://www.bohemiancoding.com/sketch -->
    <desc>Created with Sketch.</desc>
    <defs></defs>
    <g id="Page-1" stroke="none" stroke-width="1" fill="none" fill-rule="evenodd">
        <g id="ninja" transform="translate(0.000000, -303.000000)">
            <polyline id="Fill-188" fill="#A349A4" points="41.273 467.775 32.006 471.474 26.196 457.577 35.678 453.753 8.833 386.47 35.739 374.193 62.547 442.917 71.279 439.396 76.329 453.783 68.072 457.08 82.354 493.691 71.322 508.992 55.377 503.126 41.273 467.775"></polyline>
            <polyline id="Fill-189" fill="#1A1919" points="79.032 493.269 64.271 455.43 72.62 452.097 69.523 443.275 60.888 446.758 34.129 378.16 12.604 387.983 39.496 455.385 30.059 459.191 33.603 467.67 42.914 463.953 57.623 500.819 70.241 505.461 79.032 493.269"></polyline>
            <polyline id="Fill-190" fill="#A349A4" points="75.237 490.631 59.234 458.513 70.481 492.529 75.237 490.631"></polyline>
            <polyline id="Fill-191" fill="#A349A4" points="60.381 487.39 53.323 462.216 67.81 494.984 60.381 487.39"></polyline>
            <path d="M162.382,627.843 C160.252,628.789 157.97,629.733 155.749,630.453 L154.926,630.72 L154.09,630.5 C151.95,629.934 149.759,629.193 147.681,628.441 C139.69,625.553 128.849,616.403 123.543,618.62 L114.926,615.542 C112.513,614.68 110.154,613.671 107.86,612.529 C92.388,604.828 80.339,591.316 70.186,577.644 C58.792,562.301 48.959,545.783 38.009,530.11 C29.107,517.369 19.358,504.898 7.716,494.528 L0.305,487.928 L49.445,495.416 L28.225,473.884 L43.461,481.208 C46.094,482.473 49.03,483.577 51.787,484.52 C57.631,486.519 63.928,488.074 70.099,488.505 C72.23,488.653 74.38,488.667 76.51,488.485 C79.284,488.247 82.46,487.857 85.09,486.887 C86.554,486.347 87.597,485.652 88.915,484.869 C91.068,483.589 93.143,482.988 95.368,482.72 C93.937,477.893 93.094,472.348 93.054,467.719 L92.512,465.405 L87.763,448.005 L87.784,447.542 C87.896,445.078 87.985,442.61 88.037,440.143 C88.066,438.76 88.086,437.373 88.067,435.99 C88.057,435.33 88.07,434.327 87.947,433.686 C87.746,432.63 87.739,431.343 87.725,430.265 C87.705,428.748 87.725,427.227 87.756,425.709 C87.81,423.105 87.897,420.496 88.012,417.894 L88.021,417.683 L88.061,417.475 C89.619,409.249 93.79,402.254 99.79,396.556 C100.31,390.922 102.349,382.867 107.432,380.246 L109.384,379.239 C111.06,374.079 113.638,369.18 116.017,365.713 C135.772,336.926 174.402,311.911 218.8,305.427 C227.771,304.117 236.627,303.552 245.642,303.28 C245.894,314.757 242.602,340.307 238.67,352.105 C234.612,364.279 231.642,378.487 235.056,391.166 C235.339,392.215 235.505,393.289 235.56,394.375 C235.778,398.693 234.206,402.855 232.327,406.665 C230.305,410.766 227.863,414.669 225.737,418.723 C221.418,426.958 218.97,434.713 220.901,443.61 C221.92,443.05 222.915,442.428 223.618,441.971 C229.499,438.146 234.948,432.849 239.605,427.647 C244.89,421.743 252.14,417.613 259.293,414.386 C265.727,411.483 272.358,409.23 278.925,406.68 C282.416,405.325 288.594,402.924 291.15,400.142 L295.305,395.621 L296.225,401.692 C296.615,404.262 298.527,407.495 300.227,409.371 C307.814,417.742 319.324,416.923 329.684,417.174 L319.372,432.039 C317.513,436.321 316.396,442.99 315.937,447.641 L314.914,457.046 L310.55,455.322 C307.839,454.301 301.283,454.236 298.301,454.221 C295.536,454.207 292.74,454.274 289.982,454.483 C288.966,454.56 286.429,454.74 285.512,455.109 C281.599,456.728 277.475,457.66 273.246,457.711 C275.009,459.53 276.744,461.373 278.454,463.244 L288.912,474.684 L274.99,467.871 C263.862,462.427 253.804,462.786 242.185,466.11 C237.384,467.483 232.699,469.243 227.895,470.58 C223.425,471.824 218.703,472.712 214.07,471.905 C213.777,471.853 213.485,471.796 213.195,471.731 C213.195,475.358 213.195,478.985 213.195,482.612 C215.853,482.808 218.258,483.377 220.767,484.869 C222.085,485.652 223.128,486.347 224.592,486.887 C227.222,487.857 230.399,488.247 233.172,488.485 C235.303,488.667 237.453,488.653 239.585,488.504 C245.756,488.074 252.052,486.519 257.896,484.52 C260.652,483.577 263.588,482.473 266.221,481.208 L281.457,473.884 L260.202,495.452 L303.09,489.064 L297.091,495.289 C283.924,508.954 273.26,525.905 263.194,541.931 C254.31,556.076 245.458,570.582 235.037,583.656 C225.549,595.559 214.302,606.73 200.348,613.242 C198.521,614.095 196.655,614.864 194.756,615.542 L186.139,618.62 C174.56,616.475 174.147,622.617 162.382,627.843" id="Fill-192" fill="#A349A4"></path>
            <path d="M154.841,627.655 C154.841,627.655 168.584,623.184 177.174,615.178 C188.244,604.862 195.447,589.131 202.925,574.304 C202.925,574.304 199.949,603.842 193.766,612.772 C238.222,596.895 259.05,530.526 294.973,493.248 L251.926,499.659 L267.496,483.86 C267.496,483.86 248.949,492.79 232.921,491.416 C216.893,490.042 222.388,485.463 210.253,485.463 C210.253,485.463 210.254,477.219 210.254,467.602 C226.638,475.685 247.306,451.051 276.283,465.229 C258.055,445.29 266.181,459.925 284.387,452.391 C287.707,451.017 306.722,450.737 311.587,452.569 C311.587,452.569 312.629,445.452 299.071,446.123 C299.055,446.092 310.542,444.322 313.009,447.354 C313.009,447.354 314.039,436.935 316.673,430.868 C316.673,430.868 294.725,437.98 293.351,439.927 C298.957,435.598 310.638,429.626 316.649,426.363 C316.649,426.363 279.007,436.935 276.602,439.225 C274.198,441.515 247.12,448.77 240.998,451.933 C234.876,455.095 233.613,455.454 230.361,455.811 C231.422,454.364 232.453,452.665 233.669,450.904 C236.99,446.095 239.737,445.065 243.629,446.324 C247.522,447.584 271.449,433.159 272.823,430.983 C274.829,427.808 315.958,420.476 322.51,418.734 C296.179,421.023 293.316,402.133 293.316,402.133 C285.531,410.605 255.658,414.126 241.797,429.61 C227.936,445.093 218.959,447.676 218.959,447.676 C210.681,422.203 236.188,406.686 232.215,391.931 C229.01,380.025 230.841,366.286 235.879,351.174 C238.013,344.771 239.654,335.738 240.836,327.452 C216.921,365.902 242.936,314.067 242.766,306.31 C241.989,306.333 241.216,306.361 240.447,306.392 C219.09,307.644 203.047,321.367 203.047,321.367 C211.056,312.722 215.244,310.729 219.226,308.338 C179.253,314.176 152.214,331.18 134.33,348.828 C134.512,348.72 134.681,348.621 134.836,348.531 C115.338,367.018 119.883,379.843 119.883,379.843 C117.634,375.965 118,370.718 118.443,367.377 C113.754,374.21 107.69,388.112 111.923,395.853 C109.063,392.356 108.86,386.253 108.78,382.861 C103.346,385.663 102.638,397.909 102.638,397.909 L102.662,397.907 C96.674,403.304 92.471,410.003 90.951,418.023 C90.951,418.023 90.38,430.732 90.838,433.136 C91.295,435.54 90.723,447.676 90.723,447.676 L95.364,464.683 L95.994,467.373 C95.994,476.99 99.429,485.463 99.429,485.463 C87.294,485.463 92.789,490.042 76.761,491.416 C60.733,492.79 42.187,483.86 42.187,483.86 L57.757,499.659 L9.672,492.332 C52.157,530.17 71.182,596.795 115.916,612.772 C109.734,603.842 106.757,574.304 106.757,574.304 C114.121,588.904 118.254,604.63 129.249,614.929 C138.085,623.206 154.841,627.655 154.841,627.655" id="Fill-193" fill="#000000"></path>
            <path d="M155.045,462.782 C162.033,465.57 201.779,480.831 203.589,467.837 C205.572,453.589 194.166,455.918 201.935,443.588 C209.656,431.335 166.778,435.453 155.045,443.705 C143.215,435.453 99.977,431.335 107.762,443.588 C115.597,455.918 104.095,453.589 106.095,467.837 C107.92,480.831 148,465.57 155.045,462.782 Z M160.752,456.602 C160.752,456.602 168.559,445.026 180.233,440.299 L176.293,446.327 C176.293,446.327 184.903,441.737 192.71,447.902 L188.186,448.999 C188.186,448.999 189.573,450.231 188.624,451.601 C187.675,452.972 185.633,456.465 185.633,456.465 L178.628,456.876 C178.628,456.876 174.688,456.328 173.812,454.684 C173.812,454.684 173.594,458.383 176.075,459.616 C169.668,456.15 168.153,456.321 160.752,456.602 Z M148.93,456.602 C148.93,456.602 141.123,445.026 129.449,440.299 L133.389,446.327 C133.389,446.327 124.779,441.737 116.972,447.902 L121.496,448.999 C121.496,448.999 120.109,450.231 121.058,451.601 C122.007,452.972 124.049,456.465 124.049,456.465 L131.054,456.876 C131.054,456.876 134.994,456.328 135.87,454.684 C135.87,454.684 136.088,458.383 133.608,459.616 C140.014,456.15 141.528,456.321 148.93,456.602 L148.93,456.602 Z" id="Fill-194" fill="#575855"></path>
            <path d="M155.015,461.527 C160.951,463.896 194.716,476.86 196.253,465.821 C197.938,453.717 188.248,455.696 194.848,445.221 C201.407,434.812 164.981,438.31 155.015,445.321 C144.964,438.31 108.234,434.812 114.847,445.221 C121.503,455.696 111.731,453.717 113.431,465.821 C114.981,476.86 149.029,463.896 155.015,461.527 Z M159.862,456.277 C159.862,456.277 165.677,447.656 174.558,443.262 C176.322,442.133 178.22,441.114 180.233,440.299 L176.293,446.327 C176.293,446.327 184.903,441.737 192.71,447.902 L188.186,448.999 C188.186,448.999 189.573,450.231 188.624,451.601 C187.675,452.972 185.633,456.465 185.633,456.465 L178.628,456.876 C178.628,456.876 177.684,456.744 176.617,456.417 L175.048,456.51 C175.048,456.51 174.568,456.442 173.93,456.284 C174.135,457.442 174.676,458.921 176.075,459.616 C174.242,458.624 172.81,457.931 171.526,457.452 C171.812,458.009 172.24,458.52 172.879,458.837 C170.614,457.612 169.069,456.922 167.583,456.551 C165.796,456.392 163.76,456.488 160.752,456.602 C160.752,456.602 160.84,456.471 161.011,456.233 L159.862,456.277 Z M149.82,456.277 C149.82,456.277 144.005,447.656 135.124,443.262 C133.361,442.133 131.462,441.114 129.449,440.299 L133.389,446.327 C133.389,446.327 124.779,441.737 116.972,447.902 L121.496,448.999 C121.496,448.999 120.109,450.231 121.058,451.601 C122.007,452.972 124.049,456.465 124.049,456.465 L131.054,456.876 C131.054,456.876 131.998,456.744 133.065,456.417 L134.634,456.51 C134.634,456.51 135.115,456.443 135.752,456.284 C135.547,457.442 135.006,458.921 133.608,459.616 C135.44,458.624 136.872,457.931 138.157,457.452 C137.87,458.009 137.442,458.52 136.803,458.837 C139.068,457.612 140.613,456.922 142.099,456.551 C143.886,456.392 145.922,456.488 148.93,456.602 C148.93,456.602 148.842,456.471 148.671,456.233 L149.82,456.277 L149.82,456.277 Z" id="Fill-195" fill="#757572"></path>
            <path d="M206.594,454.867 C206.594,454.867 210.218,432.336 199.867,426.777 C193.716,423.473 158.021,422.431 133.217,423.649 L139.442,414.921 L128.682,423.906 C119.41,424.504 112.266,425.461 109.816,426.777 C99.465,432.336 103.088,454.867 103.088,454.867 C76.101,414.283 126.409,396.453 167.816,401.187 L164.714,405.536 L169.655,401.411 C182.537,403.103 194.421,407.007 202.655,413.122 L194.02,425.231 L205.614,415.549 C215.471,424.599 218.006,437.706 206.594,454.867" id="Fill-196" fill="#757572"></path>
            <path d="M213.221,437.31 C212.741,431.078 210.825,424.268 205.152,421.542 C203.869,420.925 202.297,420.356 200.481,419.835 L205.663,415.508 C211.542,421.285 214.591,428.564 213.221,437.31 Z M198.281,419.255 C184.479,415.896 159.815,414.795 138.744,415.9 L139.442,414.921 L138.237,415.927 C123.534,416.725 110.647,418.602 104.53,421.542 C98.857,424.268 96.941,431.078 96.461,437.31 C91.764,407.324 133.554,395.5 168.501,400.227 L164.714,405.536 L170.69,400.546 C183.298,402.519 194.852,406.678 202.776,412.952 L198.281,419.255 L198.281,419.255 Z" id="Fill-197" fill="#ABABA7"></path>
            <path d="M213.221,437.31 C213.14,436.263 213.019,435.2 212.846,434.142 C213.048,434.943 213.208,435.76 213.323,436.593 C213.292,436.831 213.258,437.07 213.221,437.31 Z M202.206,420.369 C201.658,420.186 201.083,420.008 200.481,419.835 L201.745,418.779 C202.095,419.038 202.439,419.301 202.776,419.568 L202.206,420.369 Z M96.304,436.136 C96.526,434.386 96.925,432.713 97.49,431.117 C96.935,433.133 96.62,435.253 96.461,437.31 C96.4,436.915 96.35,436.525 96.304,436.136 Z M102.262,422.997 C114.603,408.622 142.528,403.332 167.702,406.738 L162.964,414.486 L170.691,407.162 C181.73,408.889 191.962,412.294 199.657,417.326 L198.282,419.255 C184.479,415.896 159.815,414.795 138.744,415.9 L139.442,414.921 L138.237,415.927 C123.534,416.725 110.647,418.602 104.53,421.542 C103.695,421.943 102.942,422.433 102.262,422.997 L102.262,422.997 Z" id="Fill-198" fill="#A349A4"></path>
            <path d="M187.632,513.436 C187.58,513.661 187.556,513.785 187.556,513.785 C169.289,508.836 155.086,535.047 154.841,534.507 C154.694,534.831 140.238,508.878 122.126,513.785 C122.126,513.785 122.102,513.661 122.05,513.435 C121.847,511.423 120.218,501.173 107.815,494.924 L116.301,481.301 L117.665,494.221 C119.418,510.834 144.417,476.088 154.841,468.197 C165.266,476.088 190.264,510.834 192.018,494.221 L193.381,481.301 L201.868,494.924 C189.461,501.174 187.834,511.428 187.632,513.436" id="Fill-199" fill="#171816"></path>
            <path d="M185.9,511.353 C186.386,509.063 187.305,506.748 188.387,504.786 C190.881,500.263 194.596,496.747 198.993,494.168 L194.787,487.415 L194.046,494.435 C193.804,496.73 193.039,499.286 190.744,500.305 C187.214,501.872 182.698,498.412 180.135,496.296 C175.958,492.85 172.044,488.677 168.342,484.723 C165.603,481.797 162.899,478.834 160.12,475.947 C158.491,474.255 156.694,472.385 154.841,470.813 C152.988,472.385 151.191,474.254 149.562,475.947 C146.783,478.834 144.08,481.797 141.341,484.723 C137.639,488.677 133.725,492.85 129.548,496.296 C126.984,498.411 122.468,501.872 118.938,500.305 C116.643,499.286 115.879,496.73 115.636,494.435 L114.896,487.415 L110.689,494.168 C115.086,496.746 118.799,500.261 121.293,504.783 C122.376,506.747 123.296,509.062 123.782,511.353 C126.61,510.921 129.453,511.12 132.259,511.897 C135.214,512.715 137.977,514.125 140.504,515.847 C144.727,518.723 148.441,522.547 151.612,526.535 C152.607,527.786 153.56,529.07 154.476,530.381 L154.843,529.573 L155.239,530.447 C156.194,529.085 157.183,527.748 158.218,526.444 C161.362,522.485 165.026,518.688 169.211,515.827 C174.224,512.398 179.929,510.439 185.9,511.353 Z M133.753,507.801 C133.753,507.801 134.096,497.67 134.897,495.838 C135.699,494.006 152.242,476.26 153.101,476.146 C153.96,476.032 138.202,493.902 137.172,497.337 C136.141,500.772 133.409,518.449 133.753,507.801 L133.753,507.801 Z" id="Fill-200" fill="#171816"></path>
            <path d="M155.82,471.673 C155.496,471.379 155.169,471.091 154.841,470.813 C152.988,472.385 151.191,474.254 149.562,475.947 C146.783,478.834 144.08,481.797 141.341,484.723 C137.639,488.677 133.725,492.85 129.548,496.296 C126.984,498.411 122.468,501.872 118.938,500.305 C116.643,499.286 115.879,496.73 115.636,494.435 L114.896,487.415 L110.689,494.168 C115.086,496.746 118.799,500.261 121.293,504.783 C122.376,506.747 123.296,509.062 123.782,511.353 C126.61,510.921 129.453,511.12 132.259,511.897 C135.214,512.715 137.977,514.125 140.504,515.847 C144.727,518.723 148.441,522.547 151.612,526.535 C152.218,527.297 152.808,528.07 153.383,528.855 C161.683,522.147 167.068,511.354 167.068,499.18 C167.068,488.243 162.721,478.421 155.82,471.673 Z M133.753,507.801 C133.753,507.801 134.096,497.67 134.897,495.838 C135.699,494.006 152.242,476.26 153.101,476.146 C153.96,476.032 138.202,493.902 137.172,497.337 C136.141,500.772 133.409,518.449 133.753,507.801 L133.753,507.801 Z" id="Fill-201" fill="#4B4D4C"></path>
            <path d="M117.897,385.541 C117.897,385.541 163.155,322.28 205.918,317.205 C205.918,317.205 181.357,331.31 180.627,343.956 C180.627,343.956 216.133,318.907 232.426,318.907 C232.426,318.907 218.808,338.605 223.671,351.008 C223.671,351.008 213.337,377.151 218.201,391.256 C218.201,391.256 210.418,359.884 216.498,344.32 C216.498,344.32 195.098,367.424 199.718,389.554 C199.718,389.554 183.425,366.937 190.234,352.345 C135.066,405.02 161.446,350.725 117.897,385.541" id="Fill-202" fill="#282927"></path>
            <path d="M133.124,371.709 C134.954,370.914 136.764,370.308 138.503,369.98 C143.348,369.065 146.116,370.225 150.292,372.297 C153.83,374.053 155.88,373.901 159.578,372.277 C163.346,370.622 167.133,367.919 170.38,365.421 C176.526,360.696 182.375,355.333 187.979,349.983 L200.536,337.993 L193.194,353.727 C191.117,358.177 191.721,363.602 192.956,368.196 C193.762,371.194 194.913,374.165 196.257,377.024 C197.31,370.026 200.06,363.217 203.472,357.102 C205.563,353.354 207.963,349.743 210.582,346.344 C211.686,344.911 212.871,343.428 214.103,342.099 L221.153,334.499 C222.312,330.837 224.032,326.886 225.996,323.223 C212.377,327.028 191.607,340.206 182.51,346.625 L176.976,350.529 L177.366,343.767 C177.748,337.166 182.986,331.027 187.59,326.699 C187.979,326.334 188.373,325.972 188.771,325.614 C180.459,329.384 172.613,334.644 165.857,339.905 C154.166,349.008 143.401,359.842 133.706,371.035 C133.512,371.26 133.318,371.484 133.124,371.709 Z M219.372,345.954 C218.021,349.664 217.476,354.381 217.429,359.401 C217.633,358.703 217.841,358.008 218.055,357.316 C218.707,355.198 219.412,353.04 220.195,350.949 C219.7,349.328 219.444,347.65 219.372,345.954 L219.372,345.954 Z" id="Fill-203" fill="#4B4D4C"></path>
            <path d="M181.433,371.172 C181.439,376.886 182.214,399.812 201.039,399.802 C201.039,399.802 187.663,397.308 181.433,371.172" id="Fill-204" fill="#3B3C39"></path>
            <path d="M174.208,374.678 C170.47,379.218 157.275,394.671 137.942,383.57 C137.942,383.57 155.396,388.431 174.208,374.678" id="Fill-205" fill="#3B3C39"></path>
            <path d="M210.139,366.462 C208.216,371.844 199.661,390.213 213.605,395.563 C213.605,395.563 209.652,391.377 210.139,366.462" id="Fill-206" fill="#3B3C39"></path>
            <path d="M174.484,450.158 C174.484,450.158 179.129,448.383 181.773,448.211 C181.773,448.211 180.487,450.701 180.594,451.274 C180.701,451.846 167.551,453.163 174.484,450.158" id="Fill-207" fill="#A349A4"></path>
            <path d="M134.808,450.158 C134.808,450.158 130.412,448.383 127.909,448.211 C127.909,448.211 129.127,450.701 129.025,451.274 C128.923,451.846 141.368,453.163 134.808,450.158" id="Fill-208" fill="#A349A4"></path>
            <path d="M135.607,423.541 C134.8,423.575 134.003,423.611 133.217,423.649 L139.442,414.921 L135.607,423.54 L135.607,423.541 Z M139.442,414.921 L128.682,423.906 C127.925,423.955 127.182,424.006 126.454,424.06 L139.442,414.921 L139.442,414.921 Z" id="Fill-209" fill="#C5C4C0"></path>
            <path d="M128.523,552.686 C128.523,552.686 132.685,546.933 130.123,541.416 C150.704,561.654 123.606,570.014 150.232,614.228 C150.232,614.228 131.838,590.074 113.07,569.432 C112.033,561.925 108.021,555.86 106.239,553.247 C107.797,557.496 108.719,561.509 109.194,565.226 C98.06,553.323 87.232,543.334 80.493,541.068 C80.493,541.068 81.094,564.781 83.015,573.703 C83.015,573.703 60.304,554.465 45.927,513.378 L73.33,511.624 L65.798,499.684 L88.524,500.566 L88.527,500.568 C96.485,510.769 83.99,524.342 128.523,552.686" id="Fill-210" fill="#171816"></path>
            <path d="M138.036,567.439 C137.255,575.864 148.668,606.205 150.232,614.228 C143.296,605.623 122.418,579.713 113.07,569.432 C112.033,561.925 108.021,555.86 106.239,553.247 C107.797,557.496 108.719,561.509 109.194,565.226 C98.06,553.323 87.232,543.334 80.493,541.068 C80.493,541.068 80.649,547.219 81.056,554.434 C80.865,554.36 80.677,554.291 80.493,554.229 C80.493,554.229 80.721,563.185 81.341,572.159 C76.567,567.559 62.473,552.58 50.964,526.217 L73.33,524.785 L65.798,512.845 L88.524,513.727 L88.527,513.73 C96.485,523.93 83.99,537.504 128.523,565.847 C128.523,565.847 132.685,560.094 130.123,554.577 C134.937,559.31 137.142,563.394 138.036,567.439" id="Fill-211" fill="#4B4D4C"></path>
            <path d="M113.07,569.432 C112.459,568.439 111.245,572.764 110.818,572.138 C112.376,576.386 107.689,564.486 108.164,568.203 C104.431,561.58 100.856,556.537 96.953,552.908 C92.672,540.669 89.421,513.852 90.013,512.79 C90.605,511.727 87.299,500.445 88.586,500.646 C90.031,500.364 95.608,502.031 98.597,526.721 C98.984,533.448 112.055,553.941 113.07,569.432" id="Fill-212" fill="#1A1919"></path>
            <path d="M109.194,565.226 C87.538,558.486 84.846,543.673 82.096,542.749 C82.096,542.749 81.094,564.781 83.015,573.703 C83.015,573.703 60.304,554.465 45.927,513.378 L73.33,511.624 L65.798,499.684 L88.524,500.566 C89.016,501.196 91.356,537.252 109.194,565.226" id="Fill-213" fill="#1A1919"></path>
            <path d="M181.159,552.686 C181.159,552.686 176.997,546.933 179.559,541.416 C158.978,561.654 186.076,570.014 159.45,614.228 C159.45,614.228 177.844,590.074 196.612,569.432 C197.649,561.925 201.661,555.86 203.443,553.247 C201.885,557.496 200.963,561.509 200.488,565.226 C211.622,553.323 222.45,543.334 229.189,541.068 C229.189,541.068 228.588,564.781 226.667,573.703 C226.667,573.703 249.378,554.465 263.756,513.378 L236.352,511.624 L243.884,499.684 L221.158,500.566 L221.156,500.568 C213.197,510.769 225.692,524.342 181.159,552.686" id="Fill-214" fill="#171816"></path>
            <path d="M171.646,567.439 C172.427,575.864 161.014,606.205 159.45,614.228 C166.386,605.623 187.264,579.713 196.612,569.432 C197.649,561.925 201.661,555.86 203.443,553.247 C201.885,557.496 200.963,561.509 200.488,565.226 C211.622,553.323 222.45,543.334 229.189,541.068 C229.189,541.068 229.033,547.219 228.626,554.434 C228.817,554.36 229.005,554.291 229.189,554.229 C229.189,554.229 228.962,563.185 228.341,572.159 C233.115,567.559 247.209,552.58 258.719,526.217 L236.352,524.785 L243.884,512.845 L221.158,513.727 L221.156,513.73 C213.197,523.93 225.692,537.504 181.159,565.847 C181.159,565.847 176.997,560.094 179.559,554.577 C174.745,559.31 172.541,563.394 171.646,567.439" id="Fill-215" fill="#4B4D4C"></path>
            <path d="M196.612,569.432 C197.223,568.439 203.017,553.873 203.443,553.247 C201.885,557.496 200.963,561.509 200.488,565.226 C204.221,558.604 208.826,556.537 212.729,552.908 L212.73,552.908 C217.011,540.669 220.261,513.852 219.669,512.79 C219.077,511.727 222.383,500.445 221.096,500.646 C219.651,500.364 214.074,502.031 211.085,526.721 C210.698,533.448 197.627,553.941 196.612,569.432" id="Fill-216" fill="#1A1919"></path>
            <path d="M198.312,567.516 C219.969,560.776 224.13,542.983 226.879,542.059 C226.879,542.059 228.588,564.781 226.667,573.703 C226.667,573.703 249.378,554.465 263.756,513.378 L236.352,511.624 L243.884,499.684 L221.158,500.566 C220.666,501.196 208.022,540.458 198.312,567.516" id="Fill-217" fill="#1A1919"></path>
            <path d="M45.927,513.378 L73.33,511.624 L65.798,499.684 L88.524,500.566 L88.527,500.568 C88.863,501 88.563,501.994 88.83,502.44 C82.13,508.03 84.517,525.266 84.517,525.266 C76.273,516.11 45.927,513.378 45.927,513.378" id="Fill-218" fill="#4B4D4C"></path>
            <path d="M263.756,513.378 L236.352,511.624 L243.884,499.684 L221.158,500.566 L221.156,500.568 C220.819,501 221.119,501.994 220.852,502.44 C227.552,508.03 225.166,525.266 225.166,525.266 C233.409,516.11 263.756,513.378 263.756,513.378" id="Fill-219" fill="#171816"></path>
            <path d="M81.02,553.786 C81.409,560.887 82.043,569.188 83.015,573.703 C83.015,573.703 60.304,554.465 45.927,513.378 C45.927,513.378 63.346,544.898 81.02,553.786" id="Fill-220" fill="#979794"></path>
            <path d="M45.927,513.378 L73.33,511.624 L65.798,499.684 L88.519,500.566 L88.527,500.568 C88.527,500.568 78.981,509.023 83.332,522.406 C83.332,522.406 80.676,514.271 45.927,513.378" id="Fill-221" fill="#979794"></path>
            <path d="M228.662,553.786 C228.273,560.887 227.639,569.188 226.667,573.703 C226.667,573.703 249.378,554.465 263.756,513.378 C263.756,513.378 246.336,544.898 228.662,553.786" id="Fill-222" fill="#A349A4"></path>
            <path d="M263.756,513.378 L236.352,511.624 L243.884,499.684 L221.163,500.566 L221.156,500.568 C221.156,500.568 230.701,509.023 226.35,522.406 C226.35,522.406 229.006,514.271 263.756,513.378" id="Fill-223" fill="#A349A4"></path>
        </g>
    </g>
</svg>